HIERARCHY
ROOT Hips
{
    OFFSET   0.000000   0.000000   0.000000
    CHANNELS 6 Xposition Yposition Zposition Zrotation Xrotation Yrotation
    JOINT Chest
    {
        OFFSET   0.000000   8.007230   0.000000
        CHANNELS 3 Zrotation Xrotation Yrotation
        JOINT Chest2
        {
            OFFSET   0.000000  22.077100   0.000000
            CHANNELS 3 Zrotation Xrotation Yrotation
            JOINT Neck
            {
                OFFSET   0.000000  23.254800  -0.000021
                CHANNELS 3 Zrotation Xrotation Yrotation
                JOINT Head
                {
                    OFFSET   0.000000  14.370000   1.956610
                    CHANNELS 3 Zrotation Xrotation Yrotation
                    End Site
                    {
                        OFFSET   0.000000  19.566000   0.000000
                    }
                }
            }
            JOINT LeftCollar
            {
                OFFSET   3.911900  19.017000  -0.467063
                CHANNELS 3 Zrotation Xrotation Yrotation
                JOINT LeftShoulder
                {
                    OFFSET  10.383700   0.000000   0.000000
                    CHANNELS 3 Zrotation Xrotation Yrotation
                    JOINT LeftElbow
                    {
                        OFFSET  26.662100   0.001529   0.000325
                        CHANNELS 3 Zrotation Xrotation Yrotation
                        JOINT LeftWrist
                        {
                            OFFSET  28.869000  -0.000011  -0.000096
                            CHANNELS 3 Zrotation Xrotation Yrotation
                            JOINT LeftFinger0
                            {
                                OFFSET   2.044650  -2.323460   3.252850
                                CHANNELS 3 Zrotation Xrotation Yrotation
                                JOINT LeftFinger01
                                {
                                    OFFSET   3.088130   0.000000   0.000000
                                    CHANNELS 3 Zrotation Xrotation Yrotation
                                    JOINT LeftFinger02
                                    {
                                        OFFSET   2.639460   0.000000   0.000000
                                        CHANNELS 3 Zrotation Xrotation Yrotation
                                        End Site
                                        {
                                            OFFSET   2.582190   0.000000   0.000000
                                        }
                                    }
                                }
                            }
                            JOINT LeftFinger1
                            {
                                OFFSET   8.364480   0.000000   3.252850
                                CHANNELS 3 Zrotation Xrotation Yrotation
                                JOINT LeftFinger11
                                {
                                    OFFSET   4.646930   0.000000   0.000000
                                    CHANNELS 3 Zrotation Xrotation Yrotation
                                    JOINT LeftFinger12
                                    {
                                        OFFSET   2.323460   0.000000   0.000000
                                        CHANNELS 3 Zrotation Xrotation Yrotation
                                        End Site
                                        {
                                            OFFSET   2.273050   0.000000   0.000000
                                        }
                                    }
                                }
                            }
                            JOINT LeftFinger2
                            {
                                OFFSET   8.364480   0.000016   1.078090
                                CHANNELS 3 Zrotation Xrotation Yrotation
                                JOINT LeftFinger21
                                {
                                    OFFSET   5.111620   0.000000   0.000000
                                    CHANNELS 3 Zrotation Xrotation Yrotation
                                    JOINT LeftFinger22
                                    {
                                        OFFSET   2.788160   0.000017   0.000000
                                        CHANNELS 3 Zrotation Xrotation Yrotation
                                        End Site
                                        {
                                            OFFSET   2.727660   0.000000   0.000000
                                        }
                                    }
                                }
                            }
                            JOINT LeftFinger3
                            {
                                OFFSET   7.899780   0.000015  -1.078090
                                CHANNELS 3 Zrotation Xrotation Yrotation
                                JOINT LeftFinger31
                                {
                                    OFFSET   4.646920   0.000000   0.000000
                                    CHANNELS 3 Zrotation Xrotation Yrotation
                                    JOINT LeftFinger32
                                    {
                                        OFFSET   2.323470   0.000000   0.000000
                                        CHANNELS 3 Zrotation Xrotation Yrotation
                                        End Site
                                        {
                                            OFFSET   2.273050   0.000000   0.000000
                                        }
                                    }
                                }
                            }
                            JOINT LeftFinger4
                            {
                                OFFSET   7.435090   0.000000  -3.252850
                                CHANNELS 3 Zrotation Xrotation Yrotation
                                JOINT LeftFinger41
                                {
                                    OFFSET   3.717550   0.000000   0.000000
                                    CHANNELS 3 Zrotation Xrotation Yrotation
                                    JOINT LeftFinger42
                                    {
                                        OFFSET   1.858760   0.000000   0.000000
                                        CHANNELS 3 Zrotation Xrotation Yrotation
                                        End Site
                                        {
                                            OFFSET   1.818440   0.000000   0.000000
                                        }
                                    }
                                }
                            }
                        }
                    }
                }
            }
            JOINT RightCollar
            {
                OFFSET  -3.911900  19.017000  -0.467062
                CHANNELS 3 Zrotation Xrotation Yrotation
                JOINT RightShoulder
                {
                    OFFSET -10.383700   0.000015   0.000000
                    CHANNELS 3 Zrotation Xrotation Yrotation
                    JOINT RightElbow
                    {
                        OFFSET -26.662100   0.001341   0.000385
                        CHANNELS 3 Zrotation Xrotation Yrotation
                        JOINT RightWrist
                        {
                            OFFSET -28.869000   0.000025  -0.000080
                            CHANNELS 3 Zrotation Xrotation Yrotation
                            JOINT RightFinger0
                            {
                                OFFSET  -2.044650  -2.323490   3.252850
                                CHANNELS 3 Zrotation Xrotation Yrotation
                                JOINT RightFinger01
                                {
                                    OFFSET  -3.088130   0.000000   0.000000
                                    CHANNELS 3 Zrotation Xrotation Yrotation
                                    JOINT RightFinger02
                                    {
                                        OFFSET  -2.639460   0.000000   0.000000
                                        CHANNELS 3 Zrotation Xrotation Yrotation
                                        End Site
                                        {
                                            OFFSET  -2.582190   0.000000   0.000000
                                        }
                                    }
                                }
                            }
                            JOINT RightFinger1
                            {
                                OFFSET  -8.364480   0.000000   3.252850
                                CHANNELS 3 Zrotation Xrotation Yrotation
                                JOINT RightFinger11
                                {
                                    OFFSET  -4.646930   0.000000   0.000000
                                    CHANNELS 3 Zrotation Xrotation Yrotation
                                    JOINT RightFinger12
                                    {
                                        OFFSET  -2.323470   0.000000   0.000000
                                        CHANNELS 3 Zrotation Xrotation Yrotation
                                        End Site
                                        {
                                            OFFSET  -2.273050   0.000000   0.000000
                                        }
                                    }
                                }
                            }
                            JOINT RightFinger2
                            {
                                OFFSET  -8.364480   0.000000   1.078090
                                CHANNELS 3 Zrotation Xrotation Yrotation
                                JOINT RightFinger21
                                {
                                    OFFSET  -5.111610   0.000000   0.000000
                                    CHANNELS 3 Zrotation Xrotation Yrotation
                                    JOINT RightFinger22
                                    {
                                        OFFSET  -2.788160   0.000000   0.000000
                                        CHANNELS 3 Zrotation Xrotation Yrotation
                                        End Site
                                        {
                                            OFFSET  -2.727660   0.000000   0.000000
                                        }
                                    }
                                }
                            }
                            JOINT RightFinger3
                            {
                                OFFSET  -7.899780   0.000000  -1.078090
                                CHANNELS 3 Zrotation Xrotation Yrotation
                                JOINT RightFinger31
                                {
                                    OFFSET  -4.646920   0.000000   0.000000
                                    CHANNELS 3 Zrotation Xrotation Yrotation
                                    JOINT RightFinger32
                                    {
                                        OFFSET  -2.323470   0.000000   0.000000
                                        CHANNELS 3 Zrotation Xrotation Yrotation
                                        End Site
                                        {
                                            OFFSET  -2.273050   0.000000   0.000000
                                        }
                                    }
                                }
                            }
                            JOINT RightFinger4
                            {
                                OFFSET  -7.435090   0.000000  -3.252850
                                CHANNELS 3 Zrotation Xrotation Yrotation
                                JOINT RightFinger41
                                {
                                    OFFSET  -3.717550   0.000000   0.000000
                                    CHANNELS 3 Zrotation Xrotation Yrotation
                                    JOINT RightFinger42
                                    {
                                        OFFSET  -1.858770   0.000000   0.000000
                                        CHANNELS 3 Zrotation Xrotation Yrotation
                                        End Site
                                        {
                                            OFFSET  -1.818440   0.000000   0.000000
                                        }
                                    }
                                }
                            }
                        }
                    }
                }
            }
        }
    }
    JOINT LeftHip
    {
        OFFSET   9.783010   0.000000   0.000000
        CHANNELS 3 Zrotation Xrotation Yrotation
        JOINT LeftKnee
        {
            OFFSET   0.000070 -41.789100   0.000028
            CHANNELS 3 Zrotation Xrotation Yrotation
            JOINT LeftAnkle
            {
                OFFSET   0.000087 -41.133200  -0.000100
                CHANNELS 3 Zrotation Xrotation Yrotation
                JOINT LeftToe
                {
                    OFFSET   0.000000  -6.358960  14.674500
                    CHANNELS 3 Zrotation Xrotation Yrotation
                    End Site
                    {
                        OFFSET   0.000000   0.000000   3.913200
                    }
                }
            }
        }
    }
    JOINT RightHip
    {
        OFFSET  -9.783020   0.000000   0.000000
        CHANNELS 3 Zrotation Xrotation Yrotation
        JOINT RightKnee
        {
            OFFSET   0.000044 -41.789100  -0.000870
            CHANNELS 3 Zrotation Xrotation Yrotation
            JOINT RightAnkle
            {
                OFFSET  -0.000090 -41.133200  -0.000245
                CHANNELS 3 Zrotation Xrotation Yrotation
                JOINT RightToe
                {
                    OFFSET   0.000000  -6.358960  14.674500
                    CHANNELS 3 Zrotation Xrotation Yrotation
                    End Site
                    {
                        OFFSET   0.000000   0.000000   3.913200
                    }
                }
            }
        }
    }
}
MOTION
Frames: 4
Frame Time:   0.016667
  0.662645  90.118000   0.667511  -2.492870  -3.806640   0.618674   0.950103   3.205450  -0.455186   1.930260   6.402770  -0.965909   2.394180   0.380962  -0.021693   3.936020   0.768239   5.892970  -3.909620  -0.885635   6.476450 -73.078900  19.526000  -2.744240  -2.888150  -4.279360 -16.902200  13.745700   5.000360  11.350500  39.309300  22.872400 -59.781000 -21.566200  -0.009408   0.008272  -5.783110   0.002680  -0.000201 -31.591700   8.549720 -13.589600 -26.682800   0.002811  -0.007636 -18.678000  -0.001071  -0.004961 -28.902200   3.931780  -7.079910 -43.718300  -0.004412  -0.013433 -29.116400   0.000000  -0.010600 -27.757600   3.471560  -6.561550 -31.763500   0.001696   0.001726 -21.154500  -0.005672   0.001497 -33.064600   0.670491  -1.034200 -49.606100  -0.005472  -0.001286 -33.037700  -0.001481  -0.002086   7.373840   2.308450   7.910680  70.349300   6.327350  -3.062710   1.807550 -10.095400  16.295500 -18.593700 -19.525100   1.018880 -35.191500  30.612400  63.497900  35.479000   0.005784  -0.013016  12.739500   0.002226   0.002038  37.758600   0.526178   0.680448  30.896000  -0.002136   0.004791  21.627200   0.009605   0.005081  30.877900  -3.498700  -5.826800  46.584000   0.002842   0.002510  31.025000   0.015608   0.009073  34.172800  -5.235230  -7.655540  51.785500  -0.000399  -0.006191  34.489100   0.004889   0.006197  48.062700  -6.919380  -6.177330  72.655000   0.006609   0.010683  48.388200   0.006994   0.012176   3.078810   4.823760   1.256580   0.321287   0.722089  13.025400  -5.765550  -3.124560   4.502340   0.000000   0.000000   0.000000   2.516320   4.516550 -10.977500  -0.200073   2.458340  -7.804130  -9.122560   0.944788   0.079027   0.000000   0.000000   0.000000
  0.655240  90.118000   0.666530  -2.491180  -3.824400   0.639689   0.950106   3.216390  -0.450736   1.930130   6.424730  -0.957189   2.393930   0.386511  -0.021690   3.935050   0.779143   5.888880  -3.908030  -0.884698   6.472320 -73.076600  19.548100  -2.754850  -2.889400  -4.279880 -16.915600  13.746500   5.003350  11.337500  39.321300  22.871600 -59.771300 -21.548100  -0.009407   0.008580  -5.774090   0.002590  -0.000370 -31.578800   8.549160 -13.593300 -26.672500   0.002815  -0.007655 -18.670800  -0.001074  -0.004962 -28.895800   3.931210  -7.079470 -43.708400  -0.004411  -0.013762 -29.109800  -0.000116  -0.010819 -27.757900   3.471290  -6.561190 -31.754000  -0.004370  -0.007706 -21.148200  -0.005844  -0.006082 -33.061100   0.670377  -1.033970 -49.601000  -0.005568  -0.001024 -33.034200  -0.001484  -0.002125   7.375010   2.276580   7.872270  70.488500   6.227510  -3.172550   1.633120  -9.937630  16.676800 -18.699300 -19.438400   1.018250 -35.232200  30.694800  63.630300  35.458500   0.005786  -0.013015  12.729200   0.002230   0.002031  37.695000   0.609097   0.794571  30.844400  -0.002134   0.004789  21.589600   0.009598   0.004921  30.872900  -3.437530  -5.727990  46.569400   0.002844   0.002436  31.015300   0.015633   0.009020  34.171100  -5.216300  -7.629990  51.780500  -0.000414  -0.006189  34.485700   0.004865   0.006164  48.040300  -6.893090  -6.159000  72.619200   0.006544   0.010710  48.364400   0.006904   0.012192   3.078410   4.835540   1.256530   0.320887   0.724627  13.014900  -5.765610  -3.123420   4.490050  -0.000000   0.000000  -0.000000   2.518680   4.530600 -10.975300  -0.199002   2.465030  -7.811910  -9.128210   0.938602   0.062504   0.000000   0.000000   0.000000
  0.643514  90.118000   0.664465  -2.488540  -3.857300   0.670954   0.950080   3.235610  -0.442716   1.929840   6.463320  -0.941460   2.393690   0.397833  -0.021679   3.933590   0.801680   5.878420  -3.905240  -0.879890   6.461540 -73.078400  19.588700  -2.772390  -2.892350  -4.284340 -16.935200  13.746000   5.012150  11.324700  39.333300  22.870900 -59.761600 -21.530100  -0.009397   0.009008  -5.765060   0.002442  -0.000657 -31.566500   8.546000 -13.596900 -26.662200   0.002826  -0.007697 -18.663600  -0.001082  -0.004965 -28.886400   3.927220  -7.076420 -43.694000  -0.004409  -0.014092 -29.100200  -0.000319  -0.011039 -27.758600   3.469440  -6.558610 -31.739600  -0.012289  -0.017138 -21.138600  -0.006015  -0.013661 -33.053800   0.670264  -1.033750 -49.589900  -0.005664  -0.000658 -33.026800  -0.001487  -0.002179   7.372340   2.218000   7.786860  70.714700   6.075460  -3.362430   1.359520  -9.636610  17.416100 -18.943700 -19.351800   1.017060 -35.220100  30.842400  64.025600  35.438100   0.005788  -0.013005  12.719000   0.002237   0.002022  37.629700   0.732467   0.958394  30.792800  -0.002133   0.004783  21.551900   0.009579   0.004625  30.873500  -3.348490  -5.577190  46.554900   0.002853   0.002299  31.005600   0.015690   0.008903  34.173400  -5.184750  -7.579500  51.775500  -0.000453  -0.006187  34.482400   0.004812   0.006091  48.022300  -6.847060  -6.121120  72.583400   0.006398   0.010768  48.340500   0.006708   0.012229   3.077780   4.857670   1.256500   0.319972   0.730975  12.998300  -5.766050  -3.121890   4.471560  -0.000000   0.000000   0.000000   2.522980   4.556540 -10.968700  -0.197168   2.476460  -7.827430  -9.137030   0.928948   0.038021   0.000000   0.000000  -0.000000
  0.635341  90.117900   0.662028  -2.486590  -3.889730   0.690929   0.949997   3.252310  -0.435298   1.929430   6.496820  -0.926887   2.395380   0.411051  -0.021657   3.935870   0.828525   5.863640  -3.902320  -0.869436   6.447350 -73.091500  19.627800  -2.784640  -2.895610  -4.300660 -16.947300  13.742200   5.028340  11.330500  39.331000  22.888300 -59.778300 -21.549600  -0.004755   0.009184  -5.774830   0.002301  -0.000956 -31.574700   8.534970 -13.578000 -26.666600   0.002846  -0.007758 -18.666600  -0.001099  -0.004975 -28.883800   3.911120  -7.049790 -43.687400  -0.005757  -0.012271 -29.095700  -0.000547  -0.009991 -27.760400   3.453920  -6.529710 -31.731600  -0.014453  -0.016714 -21.133200  -0.005972  -0.013475 -33.044800   0.670815  -1.033810 -49.576300  -0.005641  -0.000500 -33.017800  -0.001486  -0.002203   7.359190   2.160290   7.670340  70.887500   5.979360  -3.527270   1.173690  -9.303000  18.206300 -19.286100 -19.354300   0.989561 -35.015900  30.938900  64.722600  35.534600   0.005787  -0.012981  12.767300   0.002243   0.002022  37.931900   0.811395   1.043040  31.041400  -0.002300   0.004776  21.709400   0.009545   0.004237  30.928500  -3.303860  -5.487280  46.628000   0.002867   0.002119  31.054300   0.015772   0.008738  34.221000  -5.157640  -7.523010  51.839100  -0.000515  -0.006191  34.524700   0.004738   0.005983  48.045000  -6.803710  -6.076580  72.608000   0.006188   0.010846  48.356900   0.006433   0.012287   3.080540   4.879750   1.256600   0.320563   0.740641  12.986000  -5.768250  -3.121540   4.459940  -0.000000   0.000000   0.000000   2.526780   4.580810 -10.956500  -0.195351   2.488710  -7.846870  -9.142950   0.921264   0.022700  -0.000000   0.000000  -0.000000
